<svg id="Capa_1" enable-background="new 0 0 502 502" height="512" viewBox="0 0 502 502" width="512" xmlns="http://www.w3.org/2000/svg" xmlns:xlink="http://www.w3.org/1999/xlink"><linearGradient id="lg1"><stop offset="0" stop-color="#d4dbdb"/><stop offset="1" stop-color="#f3f3f3"/></linearGradient><linearGradient id="SVGID_1_" gradientUnits="userSpaceOnUse" x1="137.087" x2="137.087" xlink:href="#lg1" y1="81.641" y2="142.043"/><linearGradient id="SVGID_2_" gradientUnits="userSpaceOnUse" x1="171.858" x2="44.953" y1="59.508" y2="59.508"><stop offset="0" stop-color="#dd5c6e"/><stop offset="1" stop-color="#ec8290"/></linearGradient><linearGradient id="SVGID_3_" gradientUnits="userSpaceOnUse" x1="249.878" x2="249.878" xlink:href="#lg1" y1="571.257" y2="286.984"/><linearGradient id="SVGID_4_" gradientUnits="userSpaceOnUse" x1="251" x2="251" y1="289.527" y2="8.228"><stop offset="0" stop-color="#ec6f80"/><stop offset="1" stop-color="#eca0aa"/></linearGradient><linearGradient id="SVGID_5_" gradientUnits="userSpaceOnUse" x1="251" x2="251" y1="485.279" y2="358.781"><stop offset="0" stop-color="#996c66"/><stop offset="1" stop-color="#ba8a6c"/></linearGradient><linearGradient id="lg2"><stop offset="0" stop-color="#74d2e8"/><stop offset="1" stop-color="#baeaf5"/></linearGradient><linearGradient id="SVGID_6_" gradientUnits="userSpaceOnUse" x1="130.537" x2="55.621" xlink:href="#lg2" y1="390.803" y2="390.803"/><linearGradient id="SVGID_7_" gradientTransform="matrix(-1 0 0 1 499.756 0)" gradientUnits="userSpaceOnUse" x1="130.537" x2="55.621" xlink:href="#lg2" y1="390.803" y2="390.803"/><g><g><path d="m51.146 63.84h171.881v137.098h-171.881z" fill="url(#SVGID_1_)"/><path d="m209.952 94.495h-162.018c-12.076 0-21.866-9.79-21.866-21.866v-26.242c0-12.076 9.79-21.865 21.866-21.865h162.017v69.973z" fill="url(#SVGID_2_)"/><path d="m448.61 230.331-198.732-167.274-198.732 167.274v202.393c0 30.676 24.868 55.544 55.544 55.544h286.374c30.676 0 55.544-24.868 55.544-55.544v-202.393z" fill="url(#SVGID_3_)"/><path d="m399.94 290.278c7.811-7.81 7.811-20.474 0-28.284l-4.796-123.913c-99.518-64.494-343.998-29.172-343.998 137.582v78.88c12.88-3.155 24.749-9.815 34.457-19.523l165.397-165.397 120.655 120.655c7.811 7.811 20.474 7.811 28.285 0z" fill="#c2c8cf"/><path d="m164.611 49.516-137.673 137.673c-17.248 17.248-26.938 40.641-26.938 65.033v30.771c0 29.914 36.167 44.895 57.319 23.742l168.653-168.653c13.822-13.822 36.232-13.822 50.055 0l168.653 168.653c21.153 21.152 57.32 6.171 57.32-23.742v-30.771c0-24.392-9.69-47.785-26.938-65.033l-137.673-137.673c-47.711-47.712-125.067-47.712-172.778 0z" fill="url(#SVGID_4_)"/><path d="m283.757 356.675h-65.515c-18.247 0-33.039 14.792-33.039 33.039v98.554h131.593v-98.554c.001-18.247-14.792-33.039-33.039-33.039z" fill="url(#SVGID_5_)"/></g><g><ellipse cx="163.114" cy="324.956" fill="#eaadcd" rx="14.936" ry="12.003"/><ellipse cx="338.886" cy="324.956" fill="#eaadcd" rx="14.936" ry="12.003"/><circle cx="188.721" cy="295.338" fill="#fff" r="29.618"/><circle cx="313.279" cy="295.338" fill="#fff" r="29.618"/><g fill="#3b3b44"><g><circle cx="188.721" cy="295.338" r="17.652"/><circle cx="313.279" cy="295.338" r="17.652"/></g><path d="m251 325.898c-5.248 0-10.495-1.984-14.776-5.954-2.025-1.877-2.145-5.041-.267-7.066 1.878-2.024 5.041-2.145 7.066-.267 4.697 4.354 11.256 4.354 15.954 0 2.023-1.877 5.188-1.758 7.065.267 1.878 2.024 1.759 5.189-.267 7.066-4.28 3.969-9.528 5.954-14.775 5.954z"/></g></g><path d="m94.243 359.675h-43.097v62.257h43.097c10.582 0 19.161-8.578 19.161-19.161v-23.936c0-10.582-8.579-19.16-19.161-19.16z" fill="url(#SVGID_6_)"/><path d="m405.513 359.675h43.096v62.257h-43.096c-10.582 0-19.161-8.578-19.161-19.161v-23.936c0-10.582 8.579-19.16 19.161-19.16z" fill="url(#SVGID_7_)"/></g></svg>